<svg t="1590459216886" class="icon" viewBox="0 0 1024 1024" version="1.1" xmlns="http://www.w3.org/2000/svg" p-id="2606" width="200" height="200"><path d="M782.08 113.92l-62.293333 62.293333A382.272 382.272 0 0 0 533.333333 128C321.258667 128 149.333333 299.925333 149.333333 512s171.925333 384 384 384 384-171.925333 384-384c0-91.776-32.213333-176.042667-85.909333-242.090667l60.586667-60.586666A467.456 467.456 0 0 1 1002.666667 512c0 259.2-210.133333 469.333333-469.333334 469.333333S64 771.2 64 512 274.133333 42.666667 533.333333 42.666667c91.370667 0 176.64 26.112 248.746667 71.253333z" p-id="2607"></path><path d="M503.658667 604.245333l-140.16-140.16 59.861333-59.861333 140.16 140.16 293.12-293.12 59.882667 59.861333-354.773334 354.773334-59.861333-59.861334 1.770667-1.792z" p-id="2608"></path></svg>