<svg t="1590458455116" class="icon" viewBox="0 0 1024 1024" version="1.1" xmlns="http://www.w3.org/2000/svg" p-id="7215" width="200" height="200"><path d="M768 342.016l0-86.016-512 0 0 86.016 512 0zM768 470.016l0-86.016-512 0 0 86.016 512 0zM768 598.016l0-86.016-512 0 0 86.016 512 0zM937.984 169.984l0 768-169.984-169.984-598.016 0q-34.005333 0-59.008-25.984t-25.002667-59.989333l0-512q0-34.005333 25.002667-59.008t59.008-25.002667l683.989333 0q34.005333 0 59.008 25.002667t25.002667 59.008z" p-id="7216"></path></svg>