<svg t="1595487533689" class="icon" viewBox="0 0 1024 1024" version="1.1" xmlns="http://www.w3.org/2000/svg" p-id="3223" width="200" height="200"><path d="M563.199974 716.799898h-102.399948a25.599987 25.599987 0 0 1 0-51.199975h102.399948a101.683149 101.683149 0 0 0 39.85918-8.038396 101.708749 101.708749 0 0 0 32.524784-21.926389 102.399949 102.399949 0 0 0 21.977589-32.588784A101.580749 101.580749 0 0 0 665.599923 563.199974V153.600179a101.747149 101.747149 0 0 0-29.977585-72.396764 101.785549 101.785549 0 0 0-32.575984-21.951989A101.273549 101.273549 0 0 0 563.199974 51.20023H153.600179a102.143949 102.143949 0 0 0-72.409564 29.977585A102.079949 102.079949 0 0 0 51.20023 153.600179v409.599795c0 13.849593 2.700799 27.263986 8.025596 39.84638a101.593549 101.593549 0 0 0 21.939189 32.537584A101.747149 101.747149 0 0 0 153.600179 665.599923h51.199975a25.599987 25.599987 0 0 1 0 51.199975h-51.199975a152.959924 152.959924 0 0 1-108.620745-44.991978A152.895924 152.895924 0 0 1 0.000256 563.199974V153.600179c0-20.76159 4.070398-40.88318 12.095994-59.81437a152.934324 152.934324 0 0 1 32.895984-48.806375A152.959924 152.959924 0 0 1 153.600179 0.000256h409.599795c20.74879 0 40.87038 4.070398 59.81437 12.095994a152.793524 152.793524 0 0 1 48.806376 32.895984 152.703924 152.703924 0 0 1 32.895984 48.819175C712.7423 112.7554 716.799898 132.86419 716.799898 153.600179v409.599795c0 20.73599-4.057598 40.85758-12.083194 59.80157a152.883124 152.883124 0 0 1-32.908784 48.819176 152.371124 152.371124 0 0 1-48.806376 32.895984A152.588724 152.588724 0 0 1 563.199974 716.799898z" fill="#ffffff" p-id="3224"></path><path d="M870.399821 1023.999744H460.800026a152.959924 152.959924 0 0 1-108.620746-44.991978A152.895924 152.895924 0 0 1 307.200102 870.399821V460.800026c0-20.76159 4.070398-40.88318 12.095994-59.81437a152.934324 152.934324 0 0 1 32.895984-48.806376A153.164723 153.164723 0 0 1 460.800026 307.200102h102.399948a25.599987 25.599987 0 0 1 0 51.199975h-102.399948a101.939149 101.939149 0 0 0-72.396764 29.977585A102.079949 102.079949 0 0 0 358.400077 460.800026v409.599795c0 13.849593 2.700799 27.263986 8.025596 39.84638a101.593549 101.593549 0 0 0 21.939189 32.537584A101.747149 101.747149 0 0 0 460.800026 972.79977h409.599795a101.683149 101.683149 0 0 0 39.85918-8.038396 101.708749 101.708749 0 0 0 32.524784-21.926389 102.399949 102.399949 0 0 0 21.977589-32.588784A101.580749 101.580749 0 0 0 972.79977 870.399821V460.800026a101.747149 101.747149 0 0 0-29.977585-72.396764 101.785549 101.785549 0 0 0-32.575984-21.951989A101.273549 101.273549 0 0 0 870.399821 358.400077h-51.199975a25.599987 25.599987 0 0 1 0-51.199975h51.199975c20.74879 0 40.87038 4.070398 59.81437 12.095994a152.793524 152.793524 0 0 1 48.806375 32.895984 152.703924 152.703924 0 0 1 32.895984 48.819175C1019.942146 419.955246 1023.999744 440.064036 1023.999744 460.800026v409.599795c0 20.73599-4.057598 40.85758-12.083194 59.80157a152.883124 152.883124 0 0 1-32.908784 48.819175 152.371124 152.371124 0 0 1-48.806375 32.895984A152.588724 152.588724 0 0 1 870.399821 1023.999744z" p-id="3225"></path></svg>